<svg width="32" height="32" viewBox="0 0 32 32" fill="none" xmlns="http://www.w3.org/2000/svg">
<rect width="32" height="32" rx="16" fill="#D0FF00"/>
<g clip-path="url(#clip0_105_77)">
<mask id="mask0_105_77" style="mask-type:luminance" maskUnits="userSpaceOnUse" x="8" y="8" width="16" height="16">
<path d="M24 8H8V24H24V8Z" fill="white"/>
</mask>
<g mask="url(#mask0_105_77)">
<path d="M10.6667 11.3083C10.6667 11.2065 10.6691 11.0995 10.674 10.9875C10.6793 10.8755 10.6871 10.7685 10.6972 10.6667H14.2722L14.8834 13.7222L13.1111 15.4945C13.5796 16.2685 14.1347 16.9791 14.7764 17.626C15.4181 18.2725 16.1056 18.8097 16.8389 19.2375L18.5959 17.4958L21.6667 18.0611V21.6361C21.5648 21.6565 21.4579 21.6667 21.3458 21.6667H21.025C19.7112 21.6667 18.4304 21.3737 17.183 20.7879C15.9351 20.2025 14.8274 19.4284 13.8597 18.4657C12.8921 17.5034 12.1181 16.3985 11.5375 15.151C10.957 13.9031 10.6667 12.6222 10.6667 11.3083Z" fill="#242325"/>
</g>
</g>
<defs>
<clipPath id="clip0_105_77">
<rect width="16" height="16" fill="white" transform="translate(8 8)"/>
</clipPath>
</defs>
</svg>
